<?xml version="1.0" encoding="utf-8"?>
<svg viewBox="0 0 378 120" xmlns="http://www.w3.org/2000/svg">
  <defs>
    <style>.cls-1{fill:#ffb600;}.cls-2{fill:#000;}</style>
  </defs>
  <g id="Livello_2" data-name="Livello 2">
    <g id="Livello_1-2" data-name="Livello 1">
      <path class="cls-1" d="M38.15,73H15.63L11.91,83.82H0L20.33,27.2h13.2L53.87,83.82h-12ZM35.07,64,26.89,40.32,18.71,64Z"/>
      <path class="cls-1" d="M96.92,30.76a24.87,24.87,0,0,1,10.44,9.92,29.57,29.57,0,0,1,3.69,15,29.07,29.07,0,0,1-3.69,14.86,25,25,0,0,1-10.44,9.84,33.7,33.7,0,0,1-15.68,3.49H61.48V27.28H81.24A33.82,33.82,0,0,1,96.92,30.76ZM94.61,69.32q4.86-4.86,4.86-13.69T94.61,41.82q-4.86-5-13.77-5h-8V74.18h8Q89.75,74.18,94.61,69.32Z"/>
      <path class="cls-2" d="M138.75,49.19a20.3,20.3,0,0,1,7.86-8.1,22.7,22.7,0,0,1,11.5-2.88q8.34,0,13.81,4.18a20.25,20.25,0,0,1,7.33,11.7H167a9,9,0,0,0-3.28-4.58A9.57,9.57,0,0,0,158,47.85a9.36,9.36,0,0,0-7.7,3.53q-2.84,3.52-2.83,10t2.83,9.92a9.36,9.36,0,0,0,7.7,3.53q6.89,0,9-6.16h12.23a20.68,20.68,0,0,1-7.37,11.58q-5.5,4.31-13.77,4.3a22.7,22.7,0,0,1-11.5-2.88,20.3,20.3,0,0,1-7.86-8.1,25.17,25.17,0,0,1-2.83-12.19A25.17,25.17,0,0,1,138.75,49.19Z"/>
      <path class="cls-2" d="M230,38.94V83.82H218.54V78.15a15,15,0,0,1-5.72,4.57,17.65,17.65,0,0,1-7.65,1.66,19,19,0,0,1-9.31-2.22,15.73,15.73,0,0,1-6.36-6.56,21.7,21.7,0,0,1-2.31-10.33V38.94h11.34V63.65q0,5.34,2.67,8.22a9.45,9.45,0,0,0,7.29,2.88,9.56,9.56,0,0,0,7.37-2.88c1.78-1.92,2.68-4.66,2.68-8.22V38.94Z"/>
      <path class="cls-2" d="M258.51,40.24a18.56,18.56,0,0,1,8.79-2,19.66,19.66,0,0,1,10.41,2.84,20,20,0,0,1,7.37,8.06,26,26,0,0,1,2.71,12.11,26.52,26.52,0,0,1-2.71,12.19,20.4,20.4,0,0,1-7.37,8.22,19.28,19.28,0,0,1-10.41,2.92,18.62,18.62,0,0,1-8.79-2,17.1,17.1,0,0,1-6-5.14v6.4H241.13V23.88h11.34V45.5A16.2,16.2,0,0,1,258.51,40.24Zm16,14a11.48,11.48,0,0,0-4.38-4.49,11.65,11.65,0,0,0-5.87-1.54,11.26,11.26,0,0,0-5.79,1.58,11.77,11.77,0,0,0-4.38,4.57,14.41,14.41,0,0,0-1.66,7.05,14.41,14.41,0,0,0,1.66,7.05A11.7,11.7,0,0,0,258.51,73a11.42,11.42,0,0,0,11.66,0,12.09,12.09,0,0,0,4.38-4.61,14.59,14.59,0,0,0,1.66-7.13A14.17,14.17,0,0,0,274.55,54.21Z"/>
      <polygon class="cls-1" points="378.04 50.9 378.04 7.14 358.77 26.41 358.77 70.17 378.04 50.9"/>
      <polygon class="cls-1" points="307.87 19.26 351.63 19.26 370.9 0 327.14 0 307.87 19.26"/>
      <path class="cls-2" d="M303.92,66.69a14,14,0,0,0,12.79,8.66c5.76.1,8.67-2,10.51-5.19h12.14c-2.56,7.41-9.07,14.37-22.89,14.37-17.32,0-24-11.82-24-23.13,0-12.69,8.5-23.25,23.9-23.25,17,0,23.59,11.94,23.59,23.25v2.95H304l7.69-7.69h15.81c-.32-3.95-2.43-9.75-11.23-9.75A12.66,12.66,0,0,0,304,56.48,18.19,18.19,0,0,0,303.92,66.69Z"/>
    </g>
    <g transform="translate(151 95)" id="svgGroup" stroke-linecap="round" fill-rule="evenodd" font-size="9pt" stroke="#ffb600" stroke-width="0.25mm" fill="#ffb600" style="stroke:#ffb600;stroke-width:0.25mm;fill:#ffb600"/>
  </g>
    <text style="fill: rgb(255, 182, 0); font-family: Arial, sans-serif; font-size: 28px; white-space: pre;" transform="matrix(1.124326, 0, 0, 1, -5.512311, 2.745251)" x="120.558" y="111.264">Template</text>
</svg>