<svg xmlns="http://www.w3.org/2000/svg" viewBox="0 0 141.66 87.14"><defs><style>.cls-1{fill:#ffb600;}</style></defs><g id="Livello_2" data-name="Livello 2"><g id="Livello_1-2" data-name="Livello 1"><path class="cls-1" d="M38.15,76.37H15.63L11.91,87.14H0L20.33,30.52h13.2L53.87,87.14h-12ZM35.07,67.3,26.89,43.65,18.71,67.3Z"/><path class="cls-1" d="M96.92,34.09A24.87,24.87,0,0,1,107.36,44,29.5,29.5,0,0,1,111.05,59a29.11,29.11,0,0,1-3.69,14.87,25,25,0,0,1-10.44,9.84,33.82,33.82,0,0,1-15.68,3.48H61.48V30.6H81.24A33.83,33.83,0,0,1,96.92,34.09ZM94.61,72.64Q99.47,67.78,99.47,59T94.61,45.14q-4.86-5-13.77-5h-8V77.5h8Q89.75,77.5,94.61,72.64Z"/><polygon class="cls-1" points="141.66 50.9 141.66 7.14 122.39 26.41 122.39 70.17 141.66 50.9"/><polygon class="cls-1" points="71.49 19.26 115.25 19.26 134.52 0 90.76 0 71.49 19.26"/></g></g></svg>